<svg xmlns="http://www.w3.org/2000/svg" xmlns:xlink="http://www.w3.org/1999/xlink" viewBox="0 0 128 128"><defs><style>.cls-1{fill:none;}.cls-10,.cls-11,.cls-14,.cls-16,.cls-19,.cls-2,.cls-3,.cls-33,.cls-4,.cls-5,.cls-6,.cls-7,.cls-8,.cls-9{opacity:0.3;}.cls-2{fill:url(#linear-gradient);}.cls-3{fill:url(#linear-gradient-2);}.cls-4{fill:url(#linear-gradient-3);}.cls-5{fill:url(#linear-gradient-4);}.cls-6{fill:url(#linear-gradient-5);}.cls-7{fill:url(#radial-gradient);}.cls-8{fill:url(#radial-gradient-2);}.cls-9{fill:url(#radial-gradient-3);}.cls-10{fill:url(#radial-gradient-4);}.cls-11{fill:url(#radial-gradient-5);}.cls-12{opacity:0.6;fill:url(#radial-gradient-6);}.cls-13{fill:#455860;}.cls-14,.cls-17{fill:#a4e7ff;}.cls-15,.cls-21{opacity:0.2;}.cls-16{fill:url(#linear-gradient-6);}.cls-17,.cls-18{opacity:0.1;}.cls-20{fill:#ff5368;}.cls-21,.cls-26,.cls-29,.cls-31{fill:#fff;}.cls-22{fill:#ffbe5f;}.cls-23{fill:#7fc290;}.cls-24{fill:#b3b3b3;}.cls-25{fill:#f87669;}.cls-27{fill:#597982;}.cls-28{fill:#ccc;}.cls-29{opacity:0.4;}.cls-30{fill:#c6ff6c;}.cls-31{opacity:0.8;}.cls-32{clip-path:url(#clip-path);}.cls-33{fill:url(#linear-gradient-7);}</style><linearGradient id="linear-gradient" x1="53" y1="10.0009" x2="53" y2="4" gradientUnits="userSpaceOnUse"><stop offset="0.0323"/><stop offset="1" stop-opacity="0"/></linearGradient><linearGradient id="linear-gradient-2" x1="40" y1="129" x2="40" y2="123" gradientTransform="translate(24 -4)" xlink:href="#linear-gradient"/><linearGradient id="linear-gradient-3" x1="135.5" y1="44" x2="135.5" y2="38" gradientTransform="translate(148 -60) rotate(90)" xlink:href="#linear-gradient"/><linearGradient id="linear-gradient-4" x1="147.5" y1="136" x2="147.5" y2="130" gradientTransform="translate(-112 212) rotate(-90)" xlink:href="#linear-gradient"/><linearGradient id="linear-gradient-5" x1="125.2005" y1="30.8707" x2="125.2005" y2="24.8713" gradientTransform="matrix(0, 0.5474, -1, 0, 122.9924, -49.66)" xlink:href="#linear-gradient"/><radialGradient id="radial-gradient" cx="24" cy="9.9583" r="5.9574" xlink:href="#linear-gradient"/><radialGradient id="radial-gradient-2" cx="23" cy="129.9583" r="5.9574" gradientTransform="translate(-106 142) rotate(-90)" xlink:href="#linear-gradient"/><radialGradient id="radial-gradient-3" cx="24" cy="220.9583" r="5.9574" gradientTransform="translate(128 340) rotate(180)" xlink:href="#linear-gradient"/><radialGradient id="radial-gradient-4" cx="81.9792" cy="10.0009" r="6.009" xlink:href="#linear-gradient"/><radialGradient id="radial-gradient-5" cx="105.5657" cy="33.8291" r="6.008" gradientTransform="translate(53.2599 -66.5807) rotate(45)" xlink:href="#linear-gradient"/><radialGradient id="radial-gradient-6" cx="426.7553" cy="-2669.5659" r="32.64" gradientTransform="translate(-498.2083 692.5172) scale(1.3174 0.2145)" gradientUnits="userSpaceOnUse"><stop offset="0"/><stop offset="1" stop-opacity="0"/></radialGradient><linearGradient id="linear-gradient-6" x1="95.25" y1="30" x2="95.25" y2="54" xlink:href="#linear-gradient"/><clipPath id="clip-path"><rect class="cls-1" x="83" y="36" width="15" height="5"/></clipPath><linearGradient id="linear-gradient-7" x1="97.25" y1="30" x2="97.25" y2="54" xlink:href="#linear-gradient"/></defs><title>icon</title><g id="shadow"><rect class="cls-2" x="24" y="4" width="58" height="6.0005"/><rect class="cls-3" x="24" y="119" width="80" height="6" transform="translate(128 244) rotate(-180)"/><rect class="cls-4" x="104" y="32.0005" width="6" height="86.9995"/><rect class="cls-5" x="18" y="10" width="6" height="109"/><rect class="cls-6" x="92.1217" y="3.3237" width="5.9994" height="31.1128" transform="translate(14.5102 72.7908) rotate(-45)"/><path class="cls-7" d="M24,4a6,6,0,0,0-6,6h6Z"/><path class="cls-8" d="M18,119a6,6,0,0,0,6,6v-6Z"/><path class="cls-9" d="M104,125a6,6,0,0,0,6-6h-6Z"/><path class="cls-10" d="M82,4v6.0009l4.2427-4.2417A5.983,5.983,0,0,0,82,4Z"/><path class="cls-11" d="M108.2428,27.7593,104,32.001,110,32A5.9768,5.9768,0,0,0,108.2428,27.7593Z"/><ellipse class="cls-12" cx="64" cy="120" rx="43" ry="7"/></g><g id="paper"><path class="cls-13" d="M83,7H23a2,2,0,0,0-2,2V119a2,2,0,0,0,2,2h82a2,2,0,0,0,2-2V31Z"/><path class="cls-14" d="M83,7H23a2,2,0,0,0-2,2v1a2,2,0,0,1,2-2H84Z"/><path class="cls-15" d="M23,121h82a2,2,0,0,0,2-2v-1a2,2,0,0,1-2,2H23a2,2,0,0,1-2-2v1A2,2,0,0,0,23,121Z"/><polygon class="cls-16" points="107 54 83.5 30.5 84 30 106 30 107 31 107 54"/><path class="cls-13" d="M107,31H84.7A1.7,1.7,0,0,1,83,29.3V7Z"/><path class="cls-17" d="M107,31H84.7A1.7,1.7,0,0,1,83,29.3V7Z"/><path class="cls-18" d="M85,30c-2,0-2-.8954-2-2v1.3A1.7,1.7,0,0,0,84.7,31H107l-1-1Z"/></g><g id="smaller_type" data-name="smaller type"><polygon class="cls-19" points="33 34 32 34 30 31.5 32 29 33 29 33 34"/><polygon class="cls-20" points="33 33 32 33 30 30.5 32 28 33 28 33 33"/><polygon class="cls-21" points="33 29 31.2 29 32 28 33 28 33 29"/><polygon class="cls-19" points="73 34 74 34 76 31.5 74 29 73 29 73 34"/><polygon class="cls-20" points="73 33 74 33 76 30.5 74 28 73 28 73 33"/><polygon class="cls-21" points="73 29 74.8 29 74 28 73 28 73 29"/><rect class="cls-20" x="33" y="28" width="5" height="5"/><rect class="cls-21" x="33" y="28" width="5" height="1"/><rect class="cls-19" x="33" y="33" width="5" height="1"/><polygon class="cls-19" points="33 58 32 58 30 55.5 32 53 33 53 33 58"/><polygon class="cls-20" points="33 57 32 57 30 54.5 32 52 33 52 33 57"/><polygon class="cls-21" points="33 53 31.2 53 32 52 33 52 33 53"/><polygon class="cls-19" points="38 58 39 58 41 55.5 39 53 38 53 38 58"/><polygon class="cls-20" points="38 57 39 57 41 54.5 39 52 38 52 38 57"/><polygon class="cls-21" points="38 53 39.8 53 39 52 38 52 38 53"/><rect class="cls-20" x="33" y="52" width="5" height="5"/><rect class="cls-21" x="33" y="52" width="5" height="1"/><rect class="cls-19" x="33" y="57" width="5" height="1"/><polygon class="cls-19" points="33 70 32 70 30 67.5 32 65 33 65 33 70"/><polygon class="cls-20" points="33 69 32 69 30 66.5 32 64 33 64 33 69"/><polygon class="cls-21" points="33 65 31.2 65 32 64 33 64 33 65"/><polygon class="cls-19" points="40 70 41 70 43 67.5 41 65 40 65 40 70"/><polygon class="cls-20" points="40 69 41 69 43 66.5 41 64 40 64 40 69"/><polygon class="cls-21" points="40 65 41.8 65 41 64 40 64 40 65"/><rect class="cls-20" x="33" y="64" width="7" height="5"/><rect class="cls-21" x="33" y="64" width="7" height="1"/><rect class="cls-19" x="33" y="69" width="7" height="1"/><polygon class="cls-19" points="33 110 32 110 30 107.5 32 105 33 105 33 110"/><polygon class="cls-20" points="33 109 32 109 30 106.5 32 104 33 104 33 109"/><polygon class="cls-21" points="33 105 31.2 105 32 104 33 104 33 105"/><polygon class="cls-19" points="40 110 41 110 43 107.5 41 105 40 105 40 110"/><polygon class="cls-20" points="40 109 41 109 43 106.5 41 104 40 104 40 109"/><polygon class="cls-21" points="40 105 41.8 105 41 104 40 104 40 105"/><rect class="cls-20" x="33" y="104" width="7" height="5"/><rect class="cls-21" x="33" y="104" width="7" height="1"/><rect class="cls-19" x="33" y="109" width="7" height="1"/><rect class="cls-22" x="36" y="72" width="7" height="5"/><rect class="cls-21" x="36" y="72" width="7" height="1"/><rect class="cls-19" x="36" y="77" width="7" height="1"/><rect class="cls-22" x="69" y="72" width="12" height="5"/><rect class="cls-21" x="69" y="72" width="12" height="1"/><rect class="cls-19" x="69" y="77" width="12" height="1"/><rect class="cls-22" x="45" y="72" width="13" height="5"/><rect class="cls-21" x="45" y="72" width="13" height="1"/><rect class="cls-19" x="45" y="77" width="13" height="1"/><rect class="cls-23" x="40" y="80" width="16" height="5"/><rect class="cls-21" x="40" y="80" width="16" height="1"/><rect class="cls-19" x="40" y="85" width="16" height="1"/><rect class="cls-23" x="49" y="88" width="13" height="5"/><rect class="cls-21" x="49" y="88" width="13" height="1"/><rect class="cls-19" x="49" y="93" width="13" height="1"/><rect class="cls-23" x="40" y="88" width="8" height="5"/><rect class="cls-21" x="40" y="88" width="8" height="1"/><rect class="cls-19" x="40" y="93" width="8" height="1"/><rect class="cls-24" x="82" y="72" width="2" height="5"/><rect class="cls-21" x="82" y="72" width="2" height="1"/><rect class="cls-19" x="82" y="77" width="2" height="1"/><rect class="cls-24" x="58" y="72" width="1" height="5"/><rect class="cls-21" x="58" y="72" width="1" height="1"/><rect class="cls-19" x="58" y="77" width="1" height="1"/><rect class="cls-24" x="43" y="72" width="1" height="5"/><rect class="cls-21" x="43" y="72" width="1" height="1"/><rect class="cls-19" x="43" y="77" width="1" height="1"/><rect class="cls-22" x="60" y="72" width="7" height="5"/><rect class="cls-21" x="60" y="72" width="7" height="1"/><rect class="cls-19" x="60" y="77" width="7" height="1"/><rect class="cls-24" x="67" y="72" width="1" height="5"/><rect class="cls-21" x="67" y="72" width="1" height="1"/><rect class="cls-19" x="67" y="77" width="1" height="1"/><rect class="cls-24" x="57" y="80" width="1" height="5"/><rect class="cls-21" x="57" y="80" width="1" height="1"/><rect class="cls-19" x="57" y="85" width="1" height="1"/><rect class="cls-25" x="59" y="80" width="9" height="5"/><rect class="cls-21" x="59" y="80" width="9" height="1"/><rect class="cls-19" x="59" y="85" width="9" height="1"/><rect class="cls-24" x="69" y="80" width="1" height="5"/><rect class="cls-21" x="69" y="80" width="1" height="1"/><rect class="cls-19" x="69" y="85" width="1" height="1"/><rect class="cls-25" x="65" y="88" width="14" height="5"/><rect class="cls-21" x="65" y="88" width="14" height="1"/><rect class="cls-19" x="65" y="93" width="14" height="1"/><rect class="cls-24" x="80" y="88" width="1" height="5"/><rect class="cls-21" x="80" y="88" width="1" height="1"/><rect class="cls-19" x="80" y="93" width="1" height="1"/><rect class="cls-24" x="63" y="88" width="1" height="5"/><rect class="cls-21" x="63" y="88" width="1" height="1"/><rect class="cls-19" x="63" y="93" width="1" height="1"/><rect class="cls-24" x="36" y="96" width="2" height="5"/><rect class="cls-21" x="36" y="96" width="2" height="1"/><rect class="cls-19" x="36" y="101" width="2" height="1"/><rect class="cls-26" x="45" y="103" width="2" height="7"/><rect class="cls-19" x="45" y="110" width="2" height="1"/><polygon class="cls-19" points="38 50 37 50 35 47.5 37 45 38 45 38 50"/><polygon class="cls-20" points="38 49 37 49 35 46.5 37 44 38 44 38 49"/><polygon class="cls-21" points="38 45 36.2 45 37 44 38 44 38 45"/><polygon class="cls-19" points="45 50 46 50 48 47.5 46 45 45 45 45 50"/><polygon class="cls-20" points="45 49 46 49 48 46.5 46 44 45 44 45 49"/><polygon class="cls-21" points="45 45 46.8 45 46 44 45 44 45 45"/><rect class="cls-20" x="38" y="44" width="7" height="5"/><rect class="cls-21" x="38" y="44" width="7" height="1"/><rect class="cls-19" x="38" y="49" width="7" height="1"/><polygon class="cls-19" points="65 50 64 50 62 47.5 64 45 65 45 65 50"/><polygon class="cls-20" points="65 49 64 49 62 46.5 64 44 65 44 65 49"/><polygon class="cls-21" points="65 45 63.2 45 64 44 65 44 65 45"/><polygon class="cls-19" points="72 50 73 50 75 47.5 73 45 72 45 72 50"/><polygon class="cls-20" points="72 49 73 49 75 46.5 73 44 72 44 72 49"/><polygon class="cls-21" points="72 45 73.8 45 73 44 72 44 72 45"/><rect class="cls-20" x="65" y="44" width="7" height="5"/><rect class="cls-21" x="65" y="44" width="7" height="1"/><rect class="cls-19" x="65" y="49" width="7" height="1"/><polygon class="cls-19" points="45 58 44 58 42 55.5 44 53 45 53 45 58"/><polygon class="cls-27" points="45 57 44 57 42 54.5 44 52 45 52 45 57"/><polygon class="cls-21" points="45 53 43.2 53 44 52 45 52 45 53"/><polygon class="cls-19" points="68 58 69 58 71 55.5 69 53 68 53 68 58"/><polygon class="cls-27" points="68 57 69 57 71 54.5 69 52 68 52 68 57"/><polygon class="cls-21" points="68 53 69.8 53 69 52 68 52 68 53"/><rect class="cls-27" x="48" y="52" width="17" height="5"/><rect class="cls-21" x="48" y="52" width="17" height="1"/><rect class="cls-19" x="48" y="57" width="17" height="1"/><rect class="cls-27" x="42" y="96" width="1" height="5"/><rect class="cls-21" x="42" y="96" width="1" height="1"/><rect class="cls-19" x="42" y="101" width="1" height="1"/><rect class="cls-27" x="65" y="96" width="1" height="5"/><rect class="cls-21" x="65" y="96" width="1" height="1"/><rect class="cls-19" x="65" y="101" width="1" height="1"/><rect class="cls-27" x="51" y="96" width="13" height="5"/><rect class="cls-21" x="51" y="96" width="13" height="1"/><rect class="cls-19" x="51" y="101" width="13" height="1"/><rect class="cls-27" x="44" y="96" width="6" height="5"/><rect class="cls-21" x="44" y="96" width="6" height="1"/><rect class="cls-19" x="44" y="101" width="6" height="1"/><rect class="cls-27" x="46" y="54" width="1" height="1"/><rect class="cls-19" x="46" y="55" width="1" height="1"/><rect class="cls-27" x="66" y="54" width="1" height="1"/><rect class="cls-19" x="66" y="55" width="1" height="1"/><rect class="cls-28" x="62" y="28" width="1" height="5"/><rect class="cls-29" x="62" y="28" width="1" height="1"/><rect class="cls-19" x="62" y="33" width="1" height="1"/><rect class="cls-28" x="45" y="28" width="1" height="5"/><rect class="cls-29" x="45" y="28" width="1" height="1"/><rect class="cls-19" x="45" y="33" width="1" height="1"/><rect class="cls-22" x="39" y="28" width="6" height="5"/><rect class="cls-29" x="39" y="28" width="6" height="1"/><rect class="cls-19" x="39" y="33" width="6" height="1"/><rect class="cls-24" x="36" y="36" width="7" height="5"/><rect class="cls-29" x="36" y="36" width="7" height="1"/><rect class="cls-19" x="36" y="41" width="7" height="1"/><rect class="cls-24" x="76" y="44" width="8" height="5"/><rect class="cls-29" x="76" y="44" width="8" height="1"/><rect class="cls-19" x="76" y="49" width="8" height="1"/><rect class="cls-24" x="78" y="36" width="4" height="5"/><rect class="cls-29" x="78" y="36" width="4" height="1"/><rect class="cls-19" x="78" y="41" width="4" height="1"/><rect class="cls-24" x="83" y="36" width="15" height="5"/><rect class="cls-29" x="83" y="36" width="15" height="1"/><rect class="cls-19" x="83" y="41" width="15" height="1"/><rect class="cls-24" x="85" y="44" width="8" height="5"/><rect class="cls-29" x="85" y="44" width="8" height="1"/><rect class="cls-19" x="85" y="49" width="8" height="1"/><rect class="cls-24" x="44" y="36" width="20" height="5"/><rect class="cls-29" x="44" y="36" width="20" height="1"/><rect class="cls-19" x="44" y="41" width="20" height="1"/><rect class="cls-24" x="65" y="36" width="12" height="5"/><rect class="cls-29" x="65" y="36" width="12" height="1"/><rect class="cls-19" x="65" y="41" width="12" height="1"/><rect class="cls-24" x="49" y="44" width="12" height="5"/><rect class="cls-29" x="49" y="44" width="12" height="1"/><rect class="cls-19" x="49" y="49" width="12" height="1"/><rect class="cls-30" x="46" y="28" width="9" height="5"/><rect class="cls-31" x="46" y="28" width="9" height="1"/><rect class="cls-19" x="46" y="33" width="9" height="1"/><rect class="cls-22" x="56" y="28" width="6" height="5"/><rect class="cls-29" x="56" y="28" width="6" height="1"/><rect class="cls-19" x="56" y="33" width="6" height="1"/><rect class="cls-30" x="63" y="28" width="9" height="5"/><rect class="cls-31" x="63" y="28" width="9" height="1"/><rect class="cls-19" x="63" y="33" width="9" height="1"/><g class="cls-32"><polygon class="cls-33" points="109 54 85.5 30.5 86 30 108 30 109 31 109 54"/></g></g></svg>